<?xml version="1.0" standalone="no"?>
<!DOCTYPE svg PUBLIC "-//W3C//DTD SVG 1.1//EN" "http://www.w3.org/Graphics/SVG/1.1/DTD/svg11.dtd" >
<svg xmlns="http://www.w3.org/2000/svg">
<metadata>Generated by IcoMoon</metadata>
<defs>
<font id="icomoon" horiz-adv-x="1024">
<font-face units-per-em="1024" ascent="960" descent="-64" />
<missing-glyph horiz-adv-x="1024" />
<glyph unicode="&#x20;" horiz-adv-x="512" d="" />
<glyph unicode="&#xe900;" glyph-name="dashboard" d="M401.067 946.347c-226.987-48.64-401.067-265.387-401.067-498.347 0-276.48 235.52-512 512-512 235.52 0 450.56 174.933 499.2 405.333 36.693 174.080-13.653 338.773-139.947 465.92-127.147 127.147-296.107 176.64-470.187 139.093zM610.133 844.8c146.773-38.4 260.267-152.747 298.667-300.373 55.467-212.48-80.213-436.053-298.667-493.227-214.187-55.467-437.76 80.213-494.933 298.667-75.947 292.693 202.24 570.88 494.933 494.933zM477.867 789.333c-9.387-9.387-17.067-24.747-17.067-34.133 0-22.187 29.013-51.2 51.2-51.2s51.2 29.013 51.2 51.2c0 9.387-7.68 24.747-17.067 34.133s-24.747 17.067-34.133 17.067c-9.387 0-24.747-7.68-34.133-17.067zM273.067 686.933c-9.387-9.387-17.067-24.747-17.067-34.133 0-22.187 29.013-51.2 51.2-51.2s51.2 29.013 51.2 51.2c0 9.387-7.68 24.747-17.067 34.133s-24.747 17.067-34.133 17.067c-9.387 0-24.747-7.68-34.133-17.067zM682.667 686.933c-9.387-9.387-17.067-24.747-17.067-34.133s7.68-24.747 17.067-34.133c9.387-9.387 24.747-17.067 34.133-17.067s24.747 7.68 34.133 17.067c9.387 9.387 17.067 24.747 17.067 34.133s-7.68 24.747-17.067 34.133c-9.387 9.387-24.747 17.067-34.133 17.067s-24.747-7.68-34.133-17.067zM457.387 441.173c-54.613-214.187-55.467-230.4-12.8-271.36 21.333-20.48 33.28-24.747 67.413-24.747s46.080 4.267 67.413 24.747c42.667 40.96 41.813 57.173-12.8 271.36-27.307 106.667-52.053 194.56-54.613 194.56s-27.307-87.893-54.613-194.56zM170.667 482.133c-9.387-9.387-17.067-24.747-17.067-34.133 0-22.187 29.013-51.2 51.2-51.2s51.2 29.013 51.2 51.2c0 9.387-7.68 24.747-17.067 34.133s-24.747 17.067-34.133 17.067c-9.387 0-24.747-7.68-34.133-17.067zM785.067 482.133c-9.387-9.387-17.067-24.747-17.067-34.133 0-22.187 29.013-51.2 51.2-51.2 9.387 0 24.747 7.68 34.133 17.067s17.067 24.747 17.067 34.133c0 9.387-7.68 24.747-17.067 34.133s-24.747 17.067-34.133 17.067c-9.387 0-24.747-7.68-34.133-17.067z" />
<glyph unicode="&#xe901;" glyph-name="ban-circle" d="M371.2 943.787c-171.52-48.64-314.027-194.56-357.547-364.373-17.92-68.267-17.92-194.56 0-262.827 44.373-173.227 193.707-322.56 366.933-366.933 68.267-17.92 194.56-17.92 262.827 0 173.227 44.373 322.56 193.707 366.933 366.933 17.92 68.267 17.92 194.56 0 262.827-44.373 173.227-193.707 322.56-366.933 366.933-70.827 17.92-204.8 17.067-272.213-2.56zM785.067 488.107c16.213-8.533 21.333-17.067 21.333-40.107 0-49.493-10.24-51.2-294.4-51.2s-294.4 1.707-294.4 51.2c0 49.493 10.24 51.2 294.4 51.2 186.027 0 257.707-3.413 273.067-11.093z" />
<glyph unicode="&#xe902;" glyph-name="cross" d="M22.756 937.244c-12.8-11.378-22.756-41.244-22.756-65.422 0-38.4 28.444-72.533 187.733-234.667l187.733-189.156-187.733-189.156c-159.289-162.133-187.733-196.267-187.733-234.667 0-55.467 32.711-88.178 88.178-88.178 38.4 0 72.533 28.444 234.667 187.733l189.156 187.733 189.156-187.733c162.133-159.289 196.267-187.733 234.667-187.733 55.467 0 88.178 32.711 88.178 88.178 0 38.4-28.444 72.533-187.733 234.667l-187.733 189.156 187.733 189.156c159.289 162.133 187.733 196.267 187.733 234.667 0 55.467-32.711 88.178-88.178 88.178-38.4 0-72.533-28.444-234.667-187.733l-189.156-187.733-189.156 187.733c-162.133 159.289-196.267 187.733-234.667 187.733-24.178 0-54.044-9.956-65.422-22.756z" />
<glyph unicode="&#xe903;" glyph-name="delete" d="M371.2 943.787c-171.52-48.64-314.027-194.56-357.547-364.373-17.92-68.267-17.92-194.56 0-262.827 44.373-173.227 193.707-322.56 366.933-366.933 68.267-17.92 194.56-17.92 262.827 0 173.227 44.373 322.56 193.707 366.933 366.933 17.92 68.267 17.92 194.56 0 262.827-44.373 173.227-193.707 322.56-366.933 366.933-70.827 17.92-204.8 17.067-272.213-2.56zM635.733 832c67.413-23.040 111.787-50.347 160.427-99.84 80.213-80.213 116.907-168.96 116.907-284.16s-36.693-203.947-116.907-284.16c-80.213-80.213-168.96-116.907-284.16-116.907s-203.947 36.693-284.16 116.907c-80.213 80.213-116.907 168.96-116.907 284.16 0 175.787 99.84 318.293 266.24 380.587 72.533 26.453 186.88 28.16 258.56 3.413zM269.653 690.347c-7.68-6.827-13.653-24.747-13.653-39.253 0-22.187 14.507-40.96 87.040-114.347l87.040-88.747-87.040-88.747c-72.533-73.387-87.040-92.16-87.040-114.347 0-33.28 19.627-52.907 52.907-52.907 22.187 0 40.96 14.507 114.347 87.040l88.747 87.040 88.747-87.040c73.387-72.533 92.16-87.040 114.347-87.040 33.28 0 52.907 19.627 52.907 52.907 0 22.187-14.507 40.96-87.040 114.347l-87.040 88.747 87.040 88.747c72.533 73.387 87.040 92.16 87.040 114.347 0 33.28-19.627 52.907-52.907 52.907-22.187 0-40.96-14.507-114.347-87.040l-88.747-87.040-88.747 87.040c-73.387 72.533-92.16 87.040-114.347 87.040-14.507 0-32.427-5.973-39.253-13.653z" />
<glyph unicode="&#xe904;" glyph-name="drag-handle-vertical" d="M308.148 936.296c-33.185-32.237-33.185-91.022 0-123.259 32.237-33.185 91.022-33.185 123.259 0 33.185 32.237 33.185 91.022 0 123.259-17.067 18.015-33.185 23.704-61.63 23.704s-44.563-5.689-61.63-23.704zM592.593 936.296c-18.015-17.067-23.704-33.185-23.704-61.63s5.689-44.563 23.704-61.63c17.067-18.015 33.185-23.704 61.63-23.704 53.096 0 85.333 32.237 85.333 85.333s-32.237 85.333-85.333 85.333c-28.444 0-44.563-5.689-61.63-23.704zM308.148 651.852c-33.185-32.237-33.185-91.022 0-123.259 32.237-33.185 91.022-33.185 123.259 0 33.185 32.237 33.185 91.022 0 123.259-17.067 18.015-33.185 23.704-61.63 23.704s-44.563-5.689-61.63-23.704zM592.593 651.852c-18.015-17.067-23.704-33.185-23.704-61.63s5.689-44.563 23.704-61.63c17.067-18.015 33.185-23.704 61.63-23.704 53.096 0 85.333 32.237 85.333 85.333s-32.237 85.333-85.333 85.333c-28.444 0-44.563-5.689-61.63-23.704zM308.148 367.407c-33.185-32.237-33.185-91.022 0-123.259 17.067-18.015 33.185-23.704 61.63-23.704 53.096 0 85.333 32.237 85.333 85.333 0 28.444-5.689 44.563-23.704 61.63-17.067 18.015-33.185 23.704-61.63 23.704s-44.563-5.689-61.63-23.704zM592.593 367.407c-18.015-17.067-23.704-33.185-23.704-61.63 0-53.096 32.237-85.333 85.333-85.333s85.333 32.237 85.333 85.333c0 28.444-5.689 44.563-23.704 61.63-17.067 18.015-33.185 23.704-61.63 23.704s-44.563-5.689-61.63-23.704zM308.148 82.963c-18.015-17.067-23.704-33.185-23.704-61.63 0-53.096 32.237-85.333 85.333-85.333s85.333 32.237 85.333 85.333c0 53.096-32.237 85.333-85.333 85.333-28.444 0-44.563-5.689-61.63-23.704zM592.593 82.963c-18.015-17.067-23.704-33.185-23.704-61.63 0-53.096 32.237-85.333 85.333-85.333s85.333 32.237 85.333 85.333c0 53.096-32.237 85.333-85.333 85.333-28.444 0-44.563-5.689-61.63-23.704z" />
<glyph unicode="&#xe905;" glyph-name="duplicate" d="M218.453 946.347c-10.24-9.387-13.653-30.72-13.653-76.8v-63.147h102.4v51.2h614.4v-614.4h-51.2v-102.4h63.147c46.080 0 67.413 3.413 76.8 13.653 11.947 11.947 13.653 59.733 13.653 395.947s-1.707 384-13.653 395.947c-11.947 11.947-59.733 13.653-395.947 13.653s-384-1.707-395.947-13.653zM13.653 741.547c-11.947-11.947-13.653-59.733-13.653-395.947s1.707-384 13.653-395.947c11.947-11.947 59.733-13.653 395.947-13.653s384 1.707 395.947 13.653c11.947 11.947 13.653 59.733 13.653 395.947s-1.707 384-13.653 395.947c-11.947 11.947-59.733 13.653-395.947 13.653s-384-1.707-395.947-13.653zM716.8 345.6v-307.2h-614.4v614.4h614.4v-307.2z" />
<glyph unicode="&#xe906;" glyph-name="edit" d="M765.867 888.533l-73.6-72.533 94.933-93.867 93.867-93.867 71.467 74.667c69.333 71.467 71.467 74.667 71.467 129.067 0 49.067-4.267 59.733-36.267 91.733s-42.667 36.267-91.733 36.267c-54.4 0-57.6-2.133-130.133-71.467zM407.467 530.133l-247.467-247.467 186.667-186.667 496 496-186.667 186.667-248.533-248.533zM48 85.333c-27.733-76.8-48-142.933-43.733-146.133 5.333-5.333 233.6 71.467 269.867 91.733 8.533 4.267-19.2 39.467-81.067 101.333l-93.867 92.8-51.2-139.733z" />
<glyph unicode="&#xe907;" glyph-name="endorsed" d="M433.941 930.623c-43.646-26.020-54.557-29.377-109.954-29.377-67.987 0-76.38-5.036-116.669-75.541-15.948-27.698-36.092-46.164-76.38-69.666-62.111-36.092-72.184-55.397-72.184-134.295 0-41.128-5.036-59.593-25.18-95.685-14.269-24.341-25.18-55.397-25.18-69.666s10.911-45.325 25.18-69.666c20.144-36.092 25.18-55.397 26.020-99.043 1.679-83.095 5.875-91.489 67.987-129.259 45.325-27.698 61.272-42.807 86.452-85.613 16.787-27.698 36.092-53.718 42.807-56.236 7.554-2.518 37.77-5.036 67.987-5.036 47.843 0 62.951-4.197 108.275-29.377 66.308-36.931 93.167-36.931 154.439 0 43.646 26.859 53.718 29.377 111.633 29.377 72.184 0 75.541 1.679 114.99 70.505 19.305 35.252 36.931 52.039 71.344 72.184 62.111 36.092 71.344 50.361 71.344 120.026 0 50.361 3.357 63.79 29.377 107.436 15.948 27.698 29.377 62.111 29.377 75.541 0 14.269-13.43 48.682-29.377 75.541-26.020 45.325-29.377 57.075-29.377 112.472 0 57.915-1.679 62.951-25.18 82.256-14.269 11.751-40.289 30.216-57.915 40.289-21.823 11.751-41.128 32.734-56.236 60.433-36.931 67.987-44.485 73.023-115.83 73.023-57.075 0-67.987 2.518-113.311 29.377-62.951 36.931-91.489 36.931-154.439 0zM744.498 589.010c10.911-10.072 19.305-23.502 19.305-31.056 0-6.715-62.951-75.541-140.17-153.6-106.597-106.597-145.207-141.010-161.154-141.010-15.108 0-44.485 23.502-107.436 86.452-94.846 94.846-105.757 119.187-66.308 144.367 18.466 12.59 22.662 12.59 44.485 0.839 12.59-6.715 47.843-36.931 78.059-67.148l53.718-55.397 118.348 117.508c65.469 64.63 124.223 117.508 130.098 117.508 6.715 0 20.144-8.393 31.056-18.466z" />
<glyph unicode="&#xe908;" glyph-name="filter-list" d="M13.653 895.147c-7.68-6.827-13.653-24.747-13.653-39.253 0-23.040 17.92-45.227 128-156.16l128-128.853v-226.987c0-251.733 0.853-254.293 53.76-254.293 22.187 0 40.107 13.653 114.347 87.893l87.893 87.893v305.493l128 128.853c110.080 110.933 128 133.12 128 156.16 0 54.613 10.24 52.907-384 52.907-313.173 0-359.253-1.707-370.347-13.653zM576.853 485.547c-17.067-17.067-17.067-58.027 0-75.093 19.627-20.48 413.867-20.48 433.493 0 17.067 17.067 17.067 58.027 0 75.093-19.627 20.48-413.867 20.48-433.493 0zM576.853 280.747c-17.067-17.067-17.067-58.027 0-75.093 11.093-11.947 42.667-13.653 216.747-13.653 223.573 0 230.4 1.707 230.4 51.2s-6.827 51.2-230.4 51.2c-174.080 0-205.653-1.707-216.747-13.653zM576.853 75.947c-17.067-17.067-17.067-58.027 0-75.093 11.093-11.947 42.667-13.653 216.747-13.653 223.573 0 230.4 1.707 230.4 51.2s-6.827 51.2-230.4 51.2c-174.080 0-205.653-1.707-216.747-13.653z" />
<glyph unicode="&#xe909;" glyph-name="filter" d="M15.17 944.83c-8.533-7.585-15.17-27.496-15.17-44.563 0-25.6 22.756-52.148 170.667-201.007l170.667-171.615v-280.652c0-310.993 0-310.993 59.733-310.993 25.6 0 47.407 18.015 155.496 126.104l126.104 126.104v339.437l170.667 171.615c147.911 148.859 170.667 175.407 170.667 201.007 0 61.63 19.911 59.733-512 59.733-425.719 0-483.556-1.896-496.83-15.17z" />
<glyph unicode="&#xe90a;" glyph-name="help" d="M401.067 946.347c-226.987-48.64-401.067-265.387-401.067-498.347 0-276.48 235.52-512 512-512 235.52 0 450.56 174.933 499.2 405.333 36.693 174.080-13.653 338.773-139.947 465.92-127.147 127.147-296.107 176.64-470.187 139.093zM604.16 741.547c56.32-28.16 87.893-76.8 87.893-137.387 0.853-55.467-6.827-71.68-72.533-159.573-49.493-66.56-56.32-80.213-56.32-112.64v-37.547h-102.4v63.147c0 62.293 0 63.147 46.933 126.293 58.88 81.067 68.267 104.107 54.613 136.533-10.24 25.6-33.28 35.84-72.533 30.72-18.773-1.707-28.16-10.24-40.96-34.987l-15.36-33.28-44.373 5.973c-69.973 8.533-74.24 11.093-68.267 36.693 28.16 117.76 167.253 174.080 283.307 116.053zM563.2 192v-51.2h-102.4v102.4h102.4v-51.2z" />
<glyph unicode="&#xe90b;" glyph-name="plus" d="M458.362 940.495c-15.848-15.848-19.505-53.638-19.505-219.429v-199.924h-199.924c-220.648 0-238.933-6.095-238.933-73.143s18.286-73.143 238.933-73.143h199.924v-199.924c0-220.648 6.095-238.933 73.143-238.933s73.143 18.286 73.143 238.933v199.924h199.924c220.648 0 238.933 6.095 238.933 73.143s-18.286 73.143-238.933 73.143h-199.924v199.924c0 220.648-6.095 238.933-73.143 238.933-19.505 0-43.886-8.533-53.638-19.505z" />
<glyph unicode="&#xe90c;" glyph-name="remove" d="M371.2 943.787c-171.52-48.64-314.027-194.56-357.547-364.373-17.92-68.267-17.92-194.56 0-262.827 44.373-173.227 193.707-322.56 366.933-366.933 68.267-17.92 194.56-17.92 262.827 0 173.227 44.373 322.56 193.707 366.933 366.933 17.92 68.267 17.92 194.56 0 262.827-44.373 173.227-193.707 322.56-366.933 366.933-70.827 17.92-204.8 17.067-272.213-2.56zM635.733 832c67.413-23.040 111.787-50.347 160.427-99.84 80.213-80.213 116.907-168.96 116.907-284.16s-36.693-203.947-116.907-284.16c-80.213-80.213-168.96-116.907-284.16-116.907s-203.947 36.693-284.16 116.907c-80.213 80.213-116.907 168.96-116.907 284.16 0 175.787 99.84 318.293 266.24 380.587 72.533 26.453 186.88 28.16 258.56 3.413zM218.453 485.547c-17.067-17.067-17.067-58.027 0-75.093 11.093-11.947 50.347-13.653 293.547-13.653 308.053 0 307.2 0 307.2 51.2s0.853 51.2-307.2 51.2c-243.2 0-282.453-1.707-293.547-13.653z" />
<glyph unicode="&#xe90d;" glyph-name="search" d="M272.213 939.52c-169.813-59.733-272.213-205.653-272.213-389.12 0-118.613 31.573-199.68 109.227-283.307 79.36-85.333 176.64-126.293 297.813-126.293 83.627 0 122.027 8.533 188.587 40.96l45.227 22.187 134.827-133.973c130.56-130.56 135.68-133.973 170.667-133.973 49.493 0 77.653 28.16 77.653 77.653 0 34.987-3.413 40.107-133.973 170.667l-133.973 134.827 22.187 45.227c32.427 66.56 40.96 104.96 40.96 188.587 0 182.613-106.667 331.947-279.040 389.12-75.947 25.6-192 24.747-267.947-2.56zM517.973 831.147c69.12-25.6 146.773-104.107 173.227-174.080 25.6-70.827 22.187-167.253-9.387-234.667-28.16-59.733-84.48-116.053-144.213-144.213-40.107-18.773-58.88-22.187-128-22.187s-87.893 3.413-128 22.187c-102.4 48.64-163.84 142.507-168.96 259.413-5.12 103.253 29.867 181.76 108.373 248.32 74.24 62.293 198.827 81.067 296.96 45.227z" />
<glyph unicode="&#xe90e;" glyph-name="tag" d="M36.267 923.733l-36.267-36.267v-411.733l539.733-539.733h50.133c28.8 0 64 6.4 80 14.933 34.133 18.133 325.333 311.467 342.4 344.533 6.4 12.8 11.733 45.867 11.733 73.6v51.2l-539.733 539.733h-411.733l-36.267-36.267zM284.8 797.867c54.4-50.133 12.8-147.2-61.867-147.2s-113.067 90.667-60.8 146.133c29.867 32 88.533 33.067 122.667 1.067z" />
<glyph unicode="&#xe90f;" glyph-name="tick-circle" d="M371.2 943.787c-171.52-48.64-314.027-194.56-357.547-364.373-17.92-68.267-17.92-194.56 0-262.827 44.373-173.227 193.707-322.56 366.933-366.933 68.267-17.92 194.56-17.92 262.827 0 173.227 44.373 322.56 193.707 366.933 366.933 17.92 68.267 17.92 194.56 0 262.827-44.373 173.227-193.707 322.56-366.933 366.933-70.827 17.92-204.8 17.067-272.213-2.56zM800.427 634.027c29.013-29.013 14.507-49.493-180.053-244.053-145.92-145.92-194.56-189.44-210.773-189.44-30.72 0-196.267 166.4-196.267 197.12 0 27.307 14.507 41.813 41.813 41.813 15.36 0 40.107-18.773 87.893-65.707l66.56-66.56 168.96 168.96c171.52 171.52 192.853 186.88 221.867 157.867z" />
<glyph unicode="&#xe910;" glyph-name="tick" d="M621.867 531.2l-301.867-300.8-109.867 108.8c-92.8 90.667-116.267 108.8-144 108.8-41.6 0-66.133-24.533-66.133-67.2 0-28.8 20.267-53.333 141.867-174.933 126.933-126.933 145.067-141.867 178.133-141.867 34.133 0 61.867 25.6 370.133 333.867 297.6 296.533 333.867 337.067 333.867 366.933 0 42.667-24.533 67.2-67.2 67.2-29.867 0-68.267-35.2-334.933-300.8z" />
<glyph unicode="&#xe911;" glyph-name="trash" horiz-adv-x="819" d="M320.853 946.347c-7.68-6.827-13.653-18.773-13.653-25.6 0-10.24-24.747-11.947-139.947-11.947-161.28 0-167.253-2.56-167.253-64.853v-37.547h819.2v37.547c0 62.293-5.973 64.853-167.253 64.853-115.2 0-139.947 1.707-139.947 11.947 0 29.867-24.747 39.253-102.4 39.253-57.173 0-78.507-3.413-88.747-13.653zM0 729.6c0-23.040 2.56-25.6 25.6-25.6h25.6v-370.347c0-325.973 1.707-372.053 13.653-384 11.093-11.947 54.613-13.653 344.747-13.653s333.653 1.707 344.747 13.653c11.947 11.947 13.653 58.027 13.653 384v370.347h25.6c23.040 0 25.6 2.56 25.6 25.6v25.6h-819.2v-25.6zM244.907 567.467c15.36-29.867 15.36-413.867 0-443.733-15.36-30.72-64.853-30.72-80.213 0-17.067 31.573-11.947 435.2 5.12 455.68 17.92 21.333 61.44 14.507 75.093-11.947zM449.707 567.467c15.36-29.867 15.36-413.867 0-443.733-15.36-30.72-64.853-30.72-80.213 0-17.067 31.573-11.947 435.2 5.12 455.68 17.92 21.333 61.44 14.507 75.093-11.947zM654.507 567.467c7.68-15.36 11.093-77.653 11.093-221.867 0-228.693-3.413-243.2-51.2-243.2-48.64 0-52.053 13.653-49.493 252.587 2.56 232.107 5.12 241.493 52.907 236.373 17.92-1.707 29.867-9.387 36.693-23.893z" />
<glyph unicode="&#xe912;" glyph-name="arrow-left" d="M182.993 663.23c-166.874-166.874-182.993-185.837-182.993-215.23s16.119-48.356 182.993-215.23c160.237-160.237 185.837-182.993 212.385-182.993 37.926 0 59.733 21.807 59.733 58.785 0 25.6-18.963 48.356-125.156 156.444l-125.156 126.104h394.43c434.252 0 424.77-0.948 424.77 56.889s9.481 56.889-424.77 56.889h-394.43l125.156 126.104c106.193 108.089 125.156 130.844 125.156 156.444 0 36.978-21.807 58.785-59.733 58.785-26.548 0-52.148-22.756-212.385-182.993z" />
<glyph unicode="&#xe913;" glyph-name="arrow-right" d="M584.059 831.052c-8.533-7.585-15.17-27.496-15.17-43.615 0-25.6 18.963-48.356 125.156-156.444l125.156-126.104h-394.43c-434.252 0-424.77 0.948-424.77-56.889s-9.481-56.889 424.77-56.889h394.43l-125.156-126.104c-106.193-108.089-125.156-130.844-125.156-156.444 0-36.978 21.807-58.785 59.733-58.785 26.548 0 52.148 22.756 212.385 182.993 166.874 166.874 182.993 185.837 182.993 215.23s-16.119 48.356-182.993 215.23c-160.237 160.237-185.837 182.993-212.385 182.993-16.119 0-36.978-6.637-44.563-15.17z" />
<glyph unicode="&#xe914;" glyph-name="calendar" d="M185.837 944.83c-11.378-11.378-15.17-35.081-15.17-102.4 0-98.607 5.689-109.985 56.889-109.985s56.889 11.378 56.889 109.985c0 97.659-9.481 117.57-56.889 117.57-15.17 0-34.133-6.637-41.719-15.17zM754.726 944.83c-11.378-11.378-15.17-35.081-15.17-102.4 0-98.607 5.689-109.985 56.889-109.985s56.889 11.378 56.889 109.985c0 97.659-9.481 117.57-56.889 117.57-15.17 0-34.133-6.637-41.719-15.17zM15.17 831.052c-13.274-13.274-15.17-66.37-15.17-439.941s1.896-426.667 15.17-439.941c13.274-13.274 71.111-15.17 496.83-15.17s483.556 1.896 496.83 15.17c13.274 13.274 15.17 66.37 15.17 439.941 0 478.815 3.793 455.111-70.163 455.111h-40.77l-5.689-41.719c-11.378-82.489-46.459-119.467-110.933-119.467s-99.556 36.978-110.933 119.467l-5.689 41.719h-335.644l-5.689-42.667c-11.378-81.541-46.459-118.519-111.881-118.519-63.526 0-98.607 37.926-109.985 119.467l-5.689 41.719h-40.77c-23.704 0-46.459-5.689-54.993-15.17zM341.333 448v-113.778h-227.556v227.556h227.556v-113.778zM625.778 448v-113.778h-227.556v227.556h227.556v-113.778zM910.222 448v-113.778h-227.556v227.556h227.556v-113.778zM341.333 163.556v-113.778h-227.556v227.556h227.556v-113.778zM625.778 163.556v-113.778h-227.556v227.556h227.556v-113.778zM910.222 163.556v-113.778h-227.556v227.556h227.556v-113.778z" />
<glyph unicode="&#xe915;" glyph-name="caret-down" d="M22.756 766.578c-41.244-39.822-27.022-98.133 45.511-187.733 237.511-292.978 384-460.8 411.022-466.489 64-17.067 98.133 9.956 253.156 194.844 277.333 334.222 291.556 352.711 291.556 396.8 0 85.333 1.422 85.333-512 85.333-405.333 0-470.756-2.844-489.244-22.756z" />
<glyph unicode="&#xe916;" glyph-name="chevron-down" d="M19.505 721.067c-10.971-9.752-19.505-36.571-19.505-57.295 0-34.133 29.257-67.048 235.276-273.067 214.552-214.552 238.933-235.276 276.724-235.276s62.171 20.724 276.724 235.276c206.019 206.019 235.276 238.933 235.276 273.067 0 48.762-28.038 76.8-76.8 76.8-31.695 0-64.61-26.819-236.495-197.486l-198.705-197.486-198.705 197.486c-171.886 170.667-204.8 197.486-236.495 197.486-21.943 0-47.543-8.533-57.295-19.505z" />
<glyph unicode="&#xe917;" glyph-name="chevron-left" d="M454.705 724.724c-214.552-214.552-235.276-238.933-235.276-276.724s20.724-62.171 235.276-276.724c206.019-206.019 238.933-235.276 273.067-235.276 48.762 0 76.8 28.038 76.8 76.8 0 31.695-26.819 64.61-197.486 236.495l-197.486 198.705 197.486 198.705c170.667 171.886 197.486 204.8 197.486 236.495 0 48.762-28.038 76.8-76.8 76.8-34.133 0-67.048-29.257-273.067-235.276z" />
<glyph unicode="&#xe918;" glyph-name="chevron-right" d="M238.933 940.495c-10.971-9.752-19.505-35.352-19.505-57.295 0-31.695 26.819-64.61 197.486-236.495l197.486-198.705-197.486-198.705c-170.667-171.886-197.486-204.8-197.486-236.495 0-48.762 28.038-76.8 76.8-76.8 34.133 0 67.048 29.257 273.067 235.276 214.552 214.552 235.276 238.933 235.276 276.724s-20.724 62.171-235.276 276.724c-206.019 206.019-238.933 235.276-273.067 235.276-20.724 0-47.543-8.533-57.295-19.505z" />
<glyph unicode="&#xe919;" glyph-name="chevron-up" d="M235.276 505.295c-206.019-206.019-235.276-238.933-235.276-273.067 0-48.762 28.038-76.8 76.8-76.8 31.695 0 64.61 26.819 236.495 197.486l198.705 197.486 198.705-197.486c171.886-170.667 204.8-197.486 236.495-197.486 48.762 0 76.8 28.038 76.8 76.8 0 34.133-29.257 67.048-235.276 273.067-214.552 214.552-238.933 235.276-276.724 235.276s-62.171-20.724-276.724-235.276z" />
<glyph unicode="&#xe91a;" glyph-name="circle-arrow-right" d="M371.2 943.787c-171.52-48.64-314.027-194.56-357.547-364.373-17.92-68.267-17.92-194.56 0-262.827 44.373-173.227 193.707-322.56 366.933-366.933 68.267-17.92 194.56-17.92 262.827 0 173.227 44.373 322.56 193.707 366.933 366.933 17.92 68.267 17.92 194.56 0 262.827-44.373 173.227-193.707 322.56-366.933 366.933-70.827 17.92-204.8 17.067-272.213-2.56zM635.733 832c67.413-23.040 111.787-50.347 160.427-99.84 80.213-80.213 116.907-168.96 116.907-284.16s-36.693-203.947-116.907-284.16c-80.213-80.213-168.96-116.907-284.16-116.907s-203.947 36.693-284.16 116.907c-80.213 80.213-116.907 168.96-116.907 284.16 0 175.787 99.84 318.293 266.24 380.587 72.533 26.453 186.88 28.16 258.56 3.413zM525.653 690.347c-29.013-29.013-17.067-61.44 47.787-128l60.587-63.147h-201.387c-221.013 0-227.84-1.707-227.84-51.2s6.827-51.2 227.84-51.2h201.387l-60.587-63.147c-48.64-50.347-61.44-68.267-61.44-88.747 0-33.28 19.627-52.907 53.76-52.907 23.040 0 42.667 16.213 139.947 113.493 101.547 101.547 113.493 116.053 113.493 142.507s-11.947 40.96-113.493 142.507c-97.28 97.28-116.907 113.493-139.947 113.493-14.507 0-33.28-5.973-40.107-13.653z" />
<glyph unicode="&#xe91b;" glyph-name="control" d="M13.653 946.347c-11.947-11.947-13.653-68.267-13.653-498.347s1.707-486.4 13.653-498.347c11.947-11.947 68.267-13.653 498.347-13.653s486.4 1.707 498.347 13.653c11.947 11.947 13.653 68.267 13.653 498.347s-1.707 486.4-13.653 498.347c-11.947 11.947-68.267 13.653-498.347 13.653s-486.4-1.707-498.347-13.653zM921.6 448v-409.6h-819.2v819.2h819.2v-409.6zM153.6 448v-358.4h307.2v716.8h-307.2v-358.4zM512 652.8v-153.6h358.4v307.2h-358.4v-153.6zM512 268.8v-179.2h358.4v358.4h-358.4v-179.2z" />
<glyph unicode="&#xe91c;" glyph-name="error" d="M401.067 946.347c-226.987-48.64-401.067-265.387-401.067-498.347 0-276.48 235.52-512 512-512 235.52 0 450.56 174.933 499.2 405.333 36.693 174.080-13.653 338.773-139.947 465.92-127.147 127.147-296.107 176.64-470.187 139.093zM563.2 524.8v-230.4h-102.4v460.8h102.4v-230.4zM563.2 192v-51.2h-102.4v102.4h102.4v-51.2z" />
<glyph unicode="&#xe91d;" glyph-name="envelope" d="M56.32 798.72c131.413-121.173 449.707-401.92 455.68-401.92s324.267 280.747 456.533 401.92c4.267 4.267-192 7.68-456.533 7.68s-460.8-3.413-455.68-7.68zM0 447.147v-310.613l162.133 162.133c89.6 88.747 161.28 164.693 160.427 168.107-2.56 5.12-272.213 249.173-308.053 279.040-13.653 11.093-14.507-7.68-14.507-298.667zM861.013 614.4c-86.187-76.8-157.867-143.36-158.72-146.773-1.707-4.267 69.973-80.213 159.573-168.96l162.133-162.133v309.76c0 169.813-0.853 308.907-2.56 308.907s-73.387-63.147-160.427-140.8zM209.067 251.733l-162.133-162.133h930.133l-162.133 162.133c-88.747 89.6-165.547 162.133-168.96 162.133-4.267 0-33.28-23.040-64.853-51.2s-63.147-51.2-69.12-51.2c-5.973 0-37.547 23.040-69.12 51.2s-60.587 51.2-64.853 51.2c-3.413 0-80.213-72.533-168.96-162.133z" />
<glyph unicode="&#xe91e;" glyph-name="info-sign" d="M401.067 946.347c-226.987-48.64-401.067-265.387-401.067-498.347 0-276.48 235.52-512 512-512 235.52 0 450.56 174.933 499.2 405.333 36.693 174.080-13.653 338.773-139.947 465.92-127.147 127.147-296.107 176.64-470.187 139.093zM563.2 704v-51.2h-102.4v102.4h102.4v-51.2zM563.2 396.8v-204.8h102.4v-51.2h-307.2v51.2h102.4v358.4h-25.6c-23.040 0-25.6 2.56-25.6 25.6v25.6h153.6v-204.8z" />
<glyph unicode="&#xe91f;" glyph-name="eye-off" d="M858.453 746.667l-89.6-58.88-45.227 20.48c-145.92 66.56-293.547 62.293-439.467-11.947-87.893-44.373-137.387-81.067-217.6-159.573-49.493-48.64-66.56-71.68-66.56-87.893 0-23.893 40.107-71.68 113.493-134.827l40.96-35.84-66.56-44.373c-36.693-23.893-71.68-50.347-77.653-57.173-14.507-18.773-12.8-57.173 3.413-73.387 31.573-32.427 47.787-23.893 525.653 294.4 255.147 169.813 468.48 314.027 474.453 321.707 14.507 18.773 12.8 57.173-3.413 73.387-25.6 25.6-58.027 16.213-151.893-46.080zM595.627 627.2c19.627-8.533 35.84-19.627 35.84-23.893s-15.36-17.92-34.133-30.72c-23.893-15.36-45.227-22.187-72.533-22.187-21.333 0-50.347-5.973-64-12.8-26.453-13.653-51.2-52.053-51.2-78.507 0-8.533-17.92-26.453-41.813-42.667-47.787-30.72-52.053-27.307-52.053 34.133 0 40.107 25.6 102.4 53.76 133.12 51.2 55.467 155.307 75.947 226.133 43.52zM813.227 506.027c-85.333-56.32-104.96-72.533-104.96-89.6 0-28.16-27.307-79.36-60.587-111.787-40.96-40.107-90.453-56.32-153.6-50.347-51.2 4.267-54.613 3.413-106.667-30.72-29.867-19.627-52.907-39.253-52.053-44.373 4.267-14.507 109.227-37.547 172.373-37.547 151.893-1.707 302.933 69.973 448.853 212.48 86.187 83.627 87.893 96.427 19.627 169.813-26.453 29.013-50.347 52.053-53.76 52.053-2.56 0-52.053-31.573-109.227-69.973z" />
<glyph unicode="&#xe920;" glyph-name="eye-open" d="M384.853 741.547c-143.36-38.4-384.853-222.72-384.853-293.547 0-71.68 244.907-256.853 389.973-294.4 62.293-16.213 181.76-16.213 244.053 0 102.4 26.453 218.453 98.133 322.56 199.68 86.187 82.773 88.747 98.987 23.040 168.96-93.867 98.987-242.347 192.853-345.6 220.16-61.44 16.213-188.587 15.36-249.173-0.853zM553.813 643.413c120.32-27.307 189.44-162.133 139.947-273.067-57.173-126.293-217.6-159.573-317.44-64.853-114.347 109.227-59.733 301.227 97.28 339.627 35.84 8.533 38.4 8.533 80.213-1.707zM480.427 549.547c-43.52-12.8-70.827-52.053-70.827-103.253 0-37.547 3.413-46.080 29.013-71.68s34.133-29.013 73.387-29.013c39.253 0 47.787 3.413 73.387 29.013 27.307 27.307 34.133 47.787 29.013 94.72-5.12 56.32-73.387 97.28-133.973 80.213z" />
<glyph unicode="&#xe921;" glyph-name="issue" d="M401.067 946.347c-226.987-48.64-401.067-265.387-401.067-498.347 0-276.48 235.52-512 512-512 235.52 0 450.56 174.933 499.2 405.333 36.693 174.080-13.653 338.773-139.947 465.92-127.147 127.147-296.107 176.64-470.187 139.093zM610.133 844.8c146.773-38.4 260.267-152.747 298.667-300.373 55.467-212.48-80.213-436.053-298.667-493.227-214.187-55.467-437.76 80.213-494.933 298.667-75.947 292.693 202.24 570.88 494.933 494.933zM460.8 524.8v-230.4h102.4v460.8h-102.4v-230.4zM460.8 192v-51.2h102.4v102.4h-102.4v-51.2z" />
<glyph unicode="&#xe922;" glyph-name="warning-sign" d="M483.84 898.56c-18.773-14.507-483.84-843.093-483.84-861.867 0-8.533 7.68-23.040 17.067-32.427 17.067-17.067 28.16-17.067 494.933-17.067s477.867 0 494.933 17.067c9.387 9.387 17.067 23.893 17.067 32.427 0 18.773-465.067 847.36-483.84 861.867-7.68 5.12-20.48 10.24-28.16 10.24s-20.48-5.12-28.16-10.24zM563.2 448v-204.8h-102.4v409.6h102.4v-204.8zM563.2 140.8v-51.2h-102.4v102.4h102.4v-51.2z" />
<glyph unicode="&#xe923;" glyph-name="menu" d="M13.653 741.547c-17.067-17.067-17.067-58.027 0-75.093 11.947-11.947 68.267-13.653 498.347-13.653 533.333 0 512-1.707 512 51.2s21.333 51.2-512 51.2c-430.080 0-486.4-1.707-498.347-13.653zM13.653 485.547c-17.067-17.067-17.067-58.027 0-75.093 11.947-11.947 68.267-13.653 498.347-13.653 533.333 0 512-1.707 512 51.2s21.333 51.2-512 51.2c-430.080 0-486.4-1.707-498.347-13.653zM13.653 229.547c-17.067-17.067-17.067-58.027 0-75.093 11.947-11.947 68.267-13.653 498.347-13.653 533.333 0 512-1.707 512 51.2s21.333 51.2-512 51.2c-430.080 0-486.4-1.707-498.347-13.653z" />
<glyph unicode="&#xe924;" glyph-name="notifications" horiz-adv-x="819" d="M336.213 930.987c-21.333-21.333-29.013-36.693-29.013-58.027 0-25.6-4.267-30.72-38.4-47.787-56.32-27.307-108.373-79.36-137.387-135.68l-24.747-49.493-4.267-205.653c-4.267-222.72-5.973-227.84-52.053-238.080-33.28-7.68-50.347-25.6-50.347-55.467 0-52.907-11.093-51.2 409.6-51.2s409.6-1.707 409.6 51.2c0 29.867-17.067 47.787-50.347 55.467-46.080 10.24-47.787 15.36-52.053 238.080l-4.267 205.653-24.747 49.493c-29.013 56.32-81.067 108.373-137.387 135.68-34.133 17.067-38.4 22.187-38.4 47.787 0 21.333-7.68 36.693-29.013 58.027-25.6 25.6-34.133 29.013-73.387 29.013s-47.787-3.413-73.387-29.013zM307.2 16.213c0-13.653 11.093-33.28 29.013-51.2 25.6-25.6 34.133-29.013 73.387-29.013s47.787 3.413 73.387 29.013c17.92 17.92 29.013 37.547 29.013 51.2v22.187h-204.8v-22.187z" />
<glyph unicode="&#xe925;" glyph-name="person" d="M435.2 952.32c-102.4-31.573-157.013-111.787-169.813-246.613-4.267-46.933-11.947-83.627-21.333-96.427-24.747-35.84-14.507-102.4 21.333-140.8 9.387-10.24 28.16-40.96 40.96-68.267 13.653-28.16 32.427-58.027 42.667-66.56 25.6-23.040 23.893-68.267-3.413-93.867-11.947-11.093-69.12-40.96-126.293-64.853-174.933-75.093-219.307-116.053-219.307-203.093v-35.84h1024v35.84c0 87.040-44.373 128-219.307 203.093-57.173 23.893-114.347 53.76-126.293 65.707-29.013 29.013-29.013 69.12 0 96.427 11.947 11.093 33.28 44.373 46.933 73.387s29.013 55.467 34.133 58.88c13.653 8.533 34.133 63.147 34.133 93.013 0 14.507-5.973 34.987-12.8 45.227s-16.213 53.76-21.333 98.133c-9.387 94.72-23.040 131.413-66.56 179.2-46.080 51.2-102.4 75.093-176.64 74.24-32.427 0-69.12-3.413-81.067-6.827z" />
<glyph unicode="&#xe926;" glyph-name="thumbs-up" d="M534.187 904.533c-9.387-9.387-12.8-29.867-11.947-70.827 0.853-46.080-3.413-65.707-21.333-100.693-29.867-58.88-93.013-126.293-175.787-186.88l-69.12-51.2v-403.627l21.333-13.653c34.987-23.040 165.547-63.147 237.227-72.533 36.693-5.12 126.293-9.387 198.827-9.387 115.2 0 136.533 2.56 165.547 17.067 17.92 9.387 35.84 21.333 39.253 26.453 10.24 17.067 5.12 59.733-9.387 75.947-12.8 14.507-11.947 15.36 17.92 20.48 34.987 6.827 71.68 39.253 71.68 63.147 0 20.48-30.72 60.587-54.613 69.973-15.36 6.827-14.507 7.68 8.533 7.68 81.067 1.707 99.84 102.4 24.747 133.973l-29.013 11.947 20.48 21.333c38.4 37.547 23.893 81.92-33.28 107.52-26.453 11.093-67.413 17.067-151.893 21.333-64 3.413-121.173 8.533-127.147 12.8-7.68 4.267-6.827 17.92 4.267 57.173 33.28 121.173 25.6 213.333-21.333 252.587-29.867 25.6-83.627 29.867-104.96 9.387zM0 302.933v-204.8h88.747c69.973 0 92.16 2.56 102.4 13.653 20.48 19.627 20.48 362.667 0 382.293-10.24 11.093-32.427 13.653-102.4 13.653h-88.747v-204.8z" />
<glyph unicode="&#xe927;" glyph-name="time" d="M371.2 943.787c-171.52-48.64-314.027-194.56-357.547-364.373-17.92-68.267-17.92-194.56 0-262.827 44.373-173.227 193.707-322.56 366.933-366.933 68.267-17.92 194.56-17.92 262.827 0 173.227 44.373 322.56 193.707 366.933 366.933 17.92 68.267 17.92 194.56 0 262.827-44.373 173.227-193.707 322.56-366.933 366.933-70.827 17.92-204.8 17.067-272.213-2.56zM635.733 832c67.413-23.040 111.787-50.347 160.427-99.84 80.213-80.213 116.907-168.96 116.907-284.16s-36.693-203.947-116.907-284.16c-80.213-80.213-168.96-116.907-284.16-116.907s-203.947 36.693-284.16 116.907c-80.213 80.213-116.907 168.96-116.907 284.16 0 175.787 99.84 318.293 266.24 380.587 72.533 26.453 186.88 28.16 258.56 3.413zM474.453 792.747c-11.947-11.093-13.653-40.96-13.653-193.707v-180.053l87.893-87.893c74.24-74.24 92.16-87.893 114.347-87.893 34.133 0 53.76 19.627 53.76 52.907 0 21.333-13.653 40.107-76.8 104.107l-76.8 78.507v150.187c0 165.547-3.413 177.493-51.2 177.493-13.653 0-30.72-5.973-37.547-13.653z" />
<glyph unicode="&#xe928;" glyph-name="user" d="M371.2 943.787c-171.52-48.64-314.027-194.56-357.547-364.373-17.92-68.267-17.92-194.56 0-262.827 44.373-172.373 194.56-322.56 366.933-366.933 68.267-17.92 194.56-17.92 262.827 0 175.787 45.227 321.707 193.707 367.787 374.613 17.067 65.707 16.213 188.587-0.853 255.147-44.373 173.227-193.707 322.56-366.933 366.933-70.827 17.92-204.8 17.067-272.213-2.56zM595.627 832.853c65.707-34.133 96.427-88.747 102.4-181.76 2.56-41.813 8.533-69.973 15.36-75.947 6.827-5.12 11.947-21.333 11.947-34.987 0-27.307-21.333-75.093-33.28-75.093-4.267 0-10.24-11.947-13.653-25.6-3.413-14.507-18.773-43.52-34.987-64.853-51.2-67.413-30.72-101.547 93.013-152.747 40.96-17.92 74.24-34.133 74.24-38.4 0-11.093-74.24-75.093-108.373-92.16-115.2-58.88-265.387-58.88-380.587 0-33.28 16.213-108.373 80.213-108.373 91.307 0 3.413 36.693 23.040 81.067 43.52 81.067 36.693 115.2 64.853 115.2 94.72 0 8.533-13.653 33.28-29.867 55.467-16.213 21.333-32.427 48.64-35.84 61.44-2.56 12.8-12.8 28.16-21.333 35.84-22.187 17.92-30.72 81.067-13.653 100.693 8.533 8.533 15.36 40.107 17.92 79.36 6.827 93.013 36.693 145.92 104.107 180.907 36.693 19.627 124.587 18.773 164.693-1.707z" />
<glyph unicode="&#xe929;" glyph-name="mobile-phone" horiz-adv-x="614" d="M17.067 942.933c-17.067-17.067-17.067-28.16-17.067-494.933s0-477.867 17.067-494.933c16.213-16.213 28.16-17.067 290.133-17.067s273.92 0.853 290.133 17.067c17.067 17.067 17.067 28.16 17.067 494.933s0 477.867-17.067 494.933c-16.213 16.213-28.16 17.067-290.133 17.067s-273.92-0.853-290.133-17.067zM512 473.6v-332.8h-409.6v665.6h409.6v-332.8zM341.333 72.533c9.387-9.387 17.067-24.747 17.067-34.133 0-22.187-29.013-51.2-51.2-51.2s-51.2 29.013-51.2 51.2c0 22.187 29.013 51.2 51.2 51.2 9.387 0 24.747-7.68 34.133-17.067z" />
<glyph unicode="&#xe92a;" glyph-name="undo" d="M115.484 767.716l-115.484-115.484v-50.062l115.484-115.484c113.778-114.347 115.484-115.484 139.378-115.484 33.564 0 52.338 18.773 52.338 51.769 0 22.756-2.844 26.738-63.716 88.747l-63.716 64.284h261.689c143.36 0 278.756-2.844 299.804-5.689 68.267-10.24 124.587-49.493 156.444-110.933 13.653-25.6 15.36-34.702 15.36-88.178s-1.707-62.578-15.36-88.178c-19.342-36.978-56.32-73.956-91.022-91.591-38.116-19.342-87.040-25.031-224.711-25.031h-121.173v-102.4h152.462c119.467 0 159.858 1.707 186.027 9.102 99.556 25.6 190.009 116.053 215.609 215.609 11.378 43.236 11.378 121.742 0 164.978-25.6 99.556-116.053 190.009-215.609 215.609-28.444 7.964-80.213 9.102-326.542 9.102h-292.978l63.716 64.284c60.871 62.009 63.716 65.991 63.716 88.747 0 32.996-18.773 51.769-52.338 51.769-23.893 0-25.6-1.138-139.378-115.484zM202.524 203.947c-65.991-39.822-65.422-141.084 1.138-178.631 30.72-17.067 73.956-17.067 104.676 0 66.56 37.547 67.129 139.947 1.138 178.631-31.858 18.773-76.231 18.773-106.951 0z" />
<glyph unicode="&#xe92b;" glyph-name="flame" horiz-adv-x="819" d="M414.72 925.867c-31.573-18.773-76.8-49.493-99.84-69.12-47.787-40.107-110.080-129.707-131.413-191.147-20.48-58.88-26.453-221.013-11.093-296.107l11.947-57.173-29.867 13.653c-31.573 13.653-126.293 18.773-144.213 7.68-18.773-11.093-11.093-64.853 17.067-118.613 34.987-64.853 148.48-186.027 214.187-228.693 50.347-32.427 105.813-55.467 113.493-47.787 2.56 2.56-12.8 35.84-34.987 73.387-21.333 38.4-42.667 78.507-46.933 89.6l-6.827 19.627 119.467-8.533-6.827 37.547c-16.213 86.187-3.413 120.32 63.147 162.133 21.333 13.653 41.813 24.747 46.080 24.747 3.413 0 27.307-29.867 52.907-65.707 47.787-67.413 73.387-124.587 73.387-163.84 0-30.72-29.867-87.040-69.12-132.267-40.107-46.080-32.427-48.64 34.133-13.653 76.8 40.96 144.213 98.987 180.907 156.16 48.64 75.093 61.44 127.147 57.173 231.253-6.827 156.16-57.173 241.493-236.373 401.067-42.667 37.547-73.387 100.693-81.92 165.547-3.413 24.747-10.24 44.373-16.213 44.373-5.12 0-35.84-15.36-68.267-34.133z" />
<glyph unicode="&#xe92c;" glyph-name="globe-network" d="M371.2 943.787c-171.52-48.64-314.027-194.56-357.547-364.373-17.92-68.267-17.92-194.56 0-262.827 44.373-173.227 193.707-322.56 366.933-366.933 68.267-17.92 194.56-17.92 262.827 0 173.227 44.373 322.56 193.707 366.933 366.933 17.92 68.267 17.92 194.56 0 262.827-44.373 173.227-193.707 322.56-366.933 366.933-70.827 17.92-204.8 17.067-272.213-2.56zM556.373 826.027c34.133-36.693 68.267-115.2 87.040-200.533l5.12-23.893h-273.067l5.12 23.893c28.16 128.853 83.627 223.573 131.413 223.573 13.653 0 31.573-9.387 44.373-23.040zM366.933 779.093c-13.653-29.013-31.573-81.067-39.253-115.2l-13.653-62.293h-84.48c-58.88 0-84.48 3.413-84.48 10.24 0 19.627 53.76 93.013 98.987 133.973 39.253 35.84 121.173 86.187 141.653 86.187 3.413 0-5.12-23.893-18.773-52.907zM708.267 799.573c69.12-40.107 170.667-151.040 170.667-187.733 0-6.827-25.6-10.24-84.48-10.24h-84.48l-13.653 62.293c-7.68 34.133-25.6 86.187-39.253 116.053-24.747 52.053-24.747 52.907-5.973 47.787 10.24-3.413 35.84-16.213 57.173-28.16zM307.2 448v-102.4h-93.013c-108.373 0-103.253-5.12-103.253 102.4s-5.12 102.4 103.253 102.4h93.013v-102.4zM657.067 448v-102.4h-290.133v204.8h290.133v-102.4zM907.947 531.627c6.827-25.6 6.827-141.653 0-166.4-5.12-18.773-9.387-19.627-98.133-19.627h-93.013v204.8h93.013c88.747 0 93.013-0.853 98.133-18.773zM327.68 232.107c7.68-34.133 25.6-86.187 39.253-116.053 24.747-52.053 24.747-52.907 5.973-47.787-34.133 11.093-94.72 49.493-135.68 87.893-40.107 37.547-92.16 110.080-92.16 128 0 6.827 25.6 10.24 84.48 10.24h84.48l13.653-62.293zM643.413 271.36c-28.16-129.707-83.627-224.427-131.413-224.427s-103.253 94.72-131.413 224.427l-5.12 23.040h273.067l-5.12-23.040zM878.933 284.16c0-17.92-52.053-90.453-92.16-128-40.96-38.4-101.547-76.8-135.68-87.893-18.773-5.12-18.773-4.267 5.973 47.787 13.653 29.867 31.573 81.92 39.253 116.053l13.653 62.293h84.48c58.88 0 84.48-3.413 84.48-10.24z" />
<glyph unicode="&#xe92d;" glyph-name="heart" d="M182.613 900.267c-44.373-13.653-107.52-62.293-137.387-105.813-37.547-55.467-47.787-98.133-43.52-184.32 6.827-121.173 69.973-235.52 198.827-361.813 75.947-74.24 298.667-261.12 311.467-261.12 14.507 0 251.733 199.68 326.827 275.627 70.827 70.827 125.44 149.333 160.427 227.84 17.92 40.107 20.48 59.733 20.48 140.8 0 81.92-2.56 98.987-19.627 130.56-24.747 46.933-76.8 98.133-122.88 122.027-54.613 28.16-157.867 32.427-221.013 8.533-46.933-17.92-114.347-71.68-133.973-107.52-9.387-17.067-9.387-16.213-23.893 4.267-24.747 34.987-71.68 75.947-109.227 95.573-39.253 20.48-159.573 29.867-206.507 15.36z" />
<glyph unicode="&#xe92e;" glyph-name="id-number" d="M29.013 777.387l-29.013-29.013v-600.747l58.027-58.027h907.947l58.027 58.027v600.747l-58.027 58.027h-907.947l-29.013-29.013zM921.6 448v-256h-819.2v512h819.2v-256zM252.587 581.973c-13.653-13.653-21.333-34.133-24.747-68.267-5.12-42.667-3.413-52.907 14.507-81.92 19.627-30.72 20.48-34.133 6.827-45.227-7.68-6.827-27.307-17.92-42.667-23.893-35.84-14.507-52.907-30.72-52.907-52.053 0-15.36 7.68-16.213 153.6-16.213s153.6 0.853 153.6 16.213c0 21.333-17.067 37.547-52.907 52.053-15.36 5.973-34.987 17.067-42.667 23.893-13.653 11.093-12.8 14.507 6.827 45.227 17.92 29.013 19.627 39.253 14.507 81.92-6.827 62.293-29.867 87.893-79.36 87.893-24.747 0-40.107-5.12-54.613-19.627zM576.853 587.947c-17.067-17.067-17.067-58.027 0-75.093 11.093-11.093 35.84-13.653 139.947-13.653 139.947 0 153.6 4.267 153.6 51.2s-13.653 51.2-153.6 51.2c-104.107 0-128.853-2.56-139.947-13.653zM576.853 383.147c-17.067-17.067-17.067-58.027 0-75.093 11.093-11.093 35.84-13.653 139.947-13.653 139.947 0 153.6 4.267 153.6 51.2s-13.653 51.2-153.6 51.2c-104.107 0-128.853-2.56-139.947-13.653z" />
<glyph unicode="&#xe92f;" glyph-name="lightbulb" horiz-adv-x="614" d="M208.213 948.053c-74.24-23.893-138.24-81.92-180.907-162.133-21.333-39.253-23.040-52.053-23.040-137.387v-94.72l44.373-89.6c23.893-48.64 48.64-108.373 53.76-131.413 5.973-23.893 12.8-52.053 16.213-64l5.12-21.333 179.2-2.56c98.133-0.853 180.907 0.853 185.173 5.12 3.413 3.413 11.093 29.867 16.213 57.173 5.12 29.867 29.013 91.307 57.173 148.48l48.64 98.133v93.867c0 91.307-0.853 96.427-29.013 148.48-33.28 60.587-85.333 110.933-144.213 139.947-49.493 23.040-173.227 29.867-228.693 11.947zM116.053 178.347c-17.067-17.067-17.067-58.027 0-75.093 19.627-20.48 362.667-20.48 382.293 0 17.067 17.067 17.067 58.027 0 75.093-19.627 20.48-362.667 20.48-382.293 0zM167.253 24.747c-17.067-17.067-17.067-58.027 0-75.093 19.627-19.627 260.267-19.627 279.893 0 17.067 17.067 17.067 58.027 0 75.093-19.627 19.627-260.267 19.627-279.893 0z" />
<glyph unicode="&#xe930;" glyph-name="shopping-cart" d="M13.653 843.947c-15.36-14.507-17.92-52.053-5.12-71.68 5.973-9.387 29.013-13.653 81.92-17.067l74.24-4.267 80.213-238.933c43.52-131.413 81.92-245.76 84.48-253.44 4.267-13.653-2.56-15.36-56.32-15.36-58.88 0-63.147-1.707-90.453-29.013-25.6-25.6-29.013-34.133-29.013-73.387s3.413-47.787 29.013-73.387c25.6-25.6 34.133-29.013 73.387-29.013s47.787 3.413 73.387 29.013c17.92 17.92 29.013 37.547 29.013 51.2v22.187h460.8v-22.187c0-13.653 11.093-33.28 29.013-51.2 25.6-25.6 34.133-29.013 73.387-29.013s47.787 3.413 73.387 29.013c25.6 25.6 29.013 34.133 29.013 72.533 0 35.84-4.267 47.787-24.747 70.827l-24.747 28.16-524.8 8.533-10.24 29.867c-5.973 16.213-12.8 38.4-16.213 49.493l-5.973 18.773h238.933c199.68 0 240.64 1.707 250.88 12.8 15.36 15.36 116.907 315.733 116.907 345.6-0.853 48.64 14.507 46.933-380.587 51.2l-363.52 4.267-16.213 41.813c-8.533 23.040-20.48 45.227-26.453 49.493-5.973 3.413-56.32 6.827-110.933 6.827-79.36 0-102.4-2.56-112.64-13.653zM892.587 637.44c-3.413-8.533-17.92-53.76-33.28-99.84l-29.013-85.333h-448.853l-29.013 85.333c-15.36 46.080-29.867 91.307-33.28 99.84-4.267 14.507 10.24 15.36 286.72 15.36s290.987-0.853 286.72-15.36z" />
<glyph unicode="&#xe931;" glyph-name="timeline-bar-chart" horiz-adv-x="1138" d="M470.281 944.83c-13.274-12.326-15.17-63.526-15.17-411.496s1.896-399.17 15.17-411.496c20.859-21.807 176.356-21.807 197.215 0 13.274 12.326 15.17 63.526 15.17 411.496s-1.896 399.17-15.17 411.496c-11.378 11.378-35.081 15.17-98.607 15.17s-87.23-3.793-98.607-15.17zM811.615 717.274c-13.274-12.326-15.17-53.096-15.17-297.719s1.896-285.393 15.17-297.719c20.859-21.807 176.356-21.807 197.215 0 13.274 12.326 15.17 53.096 15.17 297.719s-1.896 285.393-15.17 297.719c-11.378 11.378-35.081 15.17-98.607 15.17s-87.23-3.793-98.607-15.17zM128.948 546.607c-22.756-21.807-22.756-402.963 0-424.77 20.859-21.807 176.356-21.807 197.215 0 22.756 21.807 22.756 402.963 0 424.77-11.378 11.378-35.081 15.17-98.607 15.17s-87.23-3.793-98.607-15.17zM15.17 34.607c-18.963-18.963-18.963-64.474 0-83.437 13.274-13.274 75.852-15.17 553.719-15.17 592.593 0 568.889-1.896 568.889 56.889s23.704 56.889-568.889 56.889c-477.867 0-540.444-1.896-553.719-15.17z" />
<glyph unicode="&#xe932;" glyph-name="new-grid-item" d="M13.653 946.347c-20.48-19.627-20.48-413.867 0-433.493 19.627-20.48 413.867-20.48 433.493 0 20.48 19.627 20.48 413.867 0 433.493-19.627 20.48-413.867 20.48-433.493 0zM576.853 946.347c-20.48-19.627-20.48-413.867 0-433.493 19.627-20.48 413.867-20.48 433.493 0 20.48 19.627 20.48 413.867 0 433.493-19.627 20.48-413.867 20.48-433.493 0zM13.653 383.147c-20.48-19.627-20.48-413.867 0-433.493 19.627-20.48 413.867-20.48 433.493 0 20.48 19.627 20.48 413.867 0 433.493-19.627 20.48-413.867 20.48-433.493 0zM576.853 383.147c-10.24-10.24-13.653-31.573-13.653-88.747 0-84.48 9.387-102.4 51.2-102.4 34.987 0 51.2 20.48 51.2 64.853v37.547h37.547c44.373 0 64.853 16.213 64.853 51.2 0 41.813-17.92 51.2-102.4 51.2-57.173 0-78.507-3.413-88.747-13.653zM832.853 383.147c-17.067-17.067-17.067-58.027 0-75.093 7.68-8.533 28.16-13.653 51.2-13.653h37.547v-37.547c0-44.373 16.213-64.853 51.2-64.853 41.813 0 51.2 17.92 51.2 102.4 0 98.987-3.413 102.4-102.4 102.4-57.173 0-78.507-3.413-88.747-13.653zM576.853 127.147c-10.24-10.24-13.653-31.573-13.653-88.747 0-98.987 3.413-102.4 102.4-102.4 84.48 0 102.4 9.387 102.4 51.2 0 34.987-20.48 51.2-64.853 51.2h-37.547v37.547c0 44.373-16.213 64.853-51.2 64.853-13.653 0-30.72-5.973-37.547-13.653zM935.253 127.147c-8.533-7.68-13.653-28.16-13.653-51.2v-37.547h-37.547c-44.373 0-64.853-16.213-64.853-51.2 0-41.813 17.92-51.2 102.4-51.2 98.987 0 102.4 3.413 102.4 102.4 0 84.48-9.387 102.4-51.2 102.4-13.653 0-30.72-5.973-37.547-13.653z" />
<glyph unicode="&#xe933;" glyph-name="chart" horiz-adv-x="1078" d="M768.898 945.628c-17.965-17.965-17.965-61.081 0-79.046 8.982-9.881 30.54-14.372 64.674-14.372h51.2l-151.804-151.804-151.804-152.702-88.028 44.912c-53.895 26.947-100.604 44.014-117.67 44.014-18.863-0.898-89.825-31.439-200.309-88.028l-170.667-87.13-2.695-32.337c-3.593-39.523 15.27-61.979 52.996-61.979 14.372 0 89.825 32.337 174.26 73.656l148.211 74.554 94.316-47.607c53.895-26.947 106.891-46.709 123.060-46.709 25.151 0 49.404 20.66 202.105 172.463l173.361 172.463v-50.302c0-58.386 14.372-79.046 53.895-79.046 49.404 0 53.895 14.372 53.895 161.684 0 109.586-2.695 135.635-14.372 147.312-20.66 20.66-273.965 20.66-294.625 0zM832.674 557.586l-78.147-78.147v-257.796c0-221.867 1.796-259.593 14.372-271.27 20.66-20.66 273.965-20.66 294.625 0 12.575 11.677 14.372 52.098 14.372 303.607v290.133l-48.505-4.491c-44.014-3.593-51.2-0.898-71.86 19.761-13.474 12.575-26.049 35.032-28.744 50.302-3.593 14.372-8.084 26.947-11.677 26.947s-41.319-35.032-84.435-79.046zM155.396 342.007l-155.396-78.147v-150.007c0-123.958 2.695-151.804 14.372-163.481 20.66-20.66 273.965-20.66 294.625 0 12.575 11.677 14.372 46.709 14.372 242.526 0 125.754-2.695 228.154-6.288 227.256-4.491 0-77.249-35.032-161.684-78.147zM377.263 192.898c0-195.818 1.796-230.849 14.372-242.526 20.66-20.66 273.965-20.66 294.625 0 12.575 11.677 14.372 46.709 14.372 244.323v229.951l-53.895-52.996-53.895-53.895-103.298 52.098c-56.589 27.846-105.095 51.2-107.789 51.2s-4.491-102.4-4.491-228.154z" />
<glyph unicode="&#xe934;" glyph-name="logout" d="M13.653 946.347c-11.947-11.947-13.653-68.267-13.653-498.347s1.707-486.4 13.653-498.347c11.093-11.947 45.227-13.653 242.347-13.653 251.733 0 256 0.853 256 51.2 0 49.493-7.68 51.2-218.453 51.2h-191.147v819.2h191.147c210.773 0 218.453 1.707 218.453 51.2 0 50.347-4.267 51.2-256 51.2-197.12 0-231.253-1.707-242.347-13.653zM679.253 741.547c-7.68-6.827-13.653-24.747-13.653-39.253 0-22.187 14.507-40.96 87.040-114.347l87.040-88.747h-278.187c-306.347 0-305.493 0-305.493-51.2s-0.853-51.2 305.493-51.2h278.187l-87.040-88.747c-72.533-73.387-87.040-92.16-87.040-114.347 0-33.28 19.627-52.907 53.76-52.907 23.040 0 45.227 17.92 165.547 139.093 125.44 125.44 139.093 141.653 139.093 168.107s-13.653 42.667-139.093 168.107c-120.32 121.173-142.507 139.093-165.547 139.093-14.507 0-33.28-5.973-40.107-13.653z" />
<glyph unicode="&#xe935;" glyph-name="crown" horiz-adv-x="1280" d="M596.622 939.378c-14.222-14.222-20.622-27.733-20.622-43.378 0-30.578 33.422-64 64-64s64 33.422 64 64c0 30.578-33.422 64-64 64-15.644 0-29.156-6.4-43.378-20.622zM20.622 747.378c-14.222-14.222-20.622-27.733-20.622-43.378 0-30.578 33.422-64 64-64 15.644 0 29.156 6.4 43.378 20.622 27.733 28.444 27.733 58.311 0 86.756-28.444 27.733-58.311 27.733-86.756 0zM1172.622 747.378c-14.222-14.222-20.622-27.733-20.622-43.378 0-30.578 33.422-64 64-64s64 33.422 64 64c0 15.644-6.4 29.156-20.622 43.378-28.444 27.733-58.311 27.733-86.756 0zM509.156 604.444l-125.156-156.444-128.711 64-128 64.711 4.267-23.467c3.556-22.756 60.444-417.422 60.444-423.111 0-0.711 201.956-2.133 448-2.133 246.756 0 448 1.422 448 2.133 0 5.689 56.889 400.356 60.444 423.111l4.267 23.467-128-64.711-128.711-64-125.156 156.444c-68.978 86.044-128 156.444-130.844 156.444s-61.867-70.4-130.844-156.444zM192 0v-64h896v128h-896v-64z" />
<glyph unicode="&#xe936;" glyph-name="lock" horiz-adv-x="796" d="M338.173 951.783c-68.899-23.388-117.57-65.106-146.647-127.684-17.699-37.294-17.699-39.822-19.595-178.252l-1.896-140.958h-66.37c-65.106 0-67.002-0.632-85.333-18.331l-18.331-18.331v-243.99c0-254.104 1.264-267.378 27.812-281.284 9.481-5.057 113.778-6.953 375.467-5.689l362.825 1.896 30.341 35.398v243.358c0 154.864-2.528 247.783-6.321 256-12.642 22.756-39.822 30.973-103.664 30.973h-60.049l-1.896 140.958c-1.896 138.43-1.896 140.958-19.595 178.884-36.030 77.748-111.881 128.948-196.583 133.373-25.916 0.632-55.625-1.896-70.163-6.321zM440.573 836.741c31.605-13.274 45.511-26.548 59.417-56.889 10.114-21.491 12.010-42.351 12.010-149.807v-125.156h-227.556v123.259c0 154.864 7.585 179.516 66.37 206.064 30.973 14.538 59.417 15.17 89.758 2.528z" />
<glyph unicode="&#xe937;" glyph-name="redo" d="M731.022 868.978c-10.809-10.24-14.222-19.911-14.222-37.547 0-22.756 2.844-26.738 63.716-88.747l63.716-64.284h-292.978c-246.329 0-298.098-1.138-326.542-9.102-99.556-25.6-190.009-116.053-215.609-215.609-11.378-43.236-11.378-121.742 0-164.978 25.6-99.556 116.053-190.009 215.609-215.609 26.169-7.396 66.56-9.102 186.027-9.102h152.462v102.4h-120.604c-138.24 0-187.164 5.689-225.28 25.031-34.702 17.636-71.68 54.613-91.022 91.591-13.653 25.6-15.36 34.702-15.36 88.178s1.707 62.578 15.36 88.178c31.858 61.44 88.178 100.693 156.444 110.933 21.049 2.844 156.444 5.689 299.804 5.689h261.689l-63.716-64.284c-60.871-62.009-63.716-65.991-63.716-88.747 0-32.996 18.773-51.769 52.338-51.769 23.893 0 25.6 1.138 139.378 115.484l115.484 115.484v50.062l-115.484 115.484c-113.778 114.347-115.484 115.484-139.378 115.484-18.204 0-27.876-3.413-38.116-14.222zM714.524 203.947c-65.991-39.822-65.422-141.084 1.138-178.631 30.72-17.067 73.956-17.067 104.676 0 66.56 37.547 67.129 139.947 1.138 178.631-31.858 18.773-76.231 18.773-106.951 0z" />
<glyph unicode="&#xe938;" glyph-name="align-left" d="M14.222 894.578c-19.911-19.342-19.911-54.613 0-73.956l13.653-14.222h968.249l13.653 14.222c10.809 10.24 14.222 19.911 14.222 36.978s-3.413 26.738-14.222 36.978l-13.653 14.222h-968.249l-13.653-14.222zM14.222 689.778c-19.911-19.342-19.911-54.613 0-73.956l13.653-14.222h558.649l13.653 14.222c19.911 19.342 19.911 54.613 0 73.956l-13.653 14.222h-558.649l-13.653-14.222zM14.222 484.978c-19.911-19.342-19.911-54.613 0-73.956l13.653-14.222h968.249l13.653 14.222c10.809 10.24 14.222 19.911 14.222 36.978s-3.413 26.738-14.222 36.978l-13.653 14.222h-968.249l-13.653-14.222zM14.222 280.178c-19.911-19.342-19.911-54.613 0-73.956l13.653-14.222h353.849l13.653 14.222c19.911 19.342 19.911 54.613 0 73.956l-13.653 14.222h-353.849l-13.653-14.222zM14.222 75.378c-10.809-10.24-14.222-19.911-14.222-36.978s3.413-26.738 14.222-36.978l13.653-14.222h763.449l13.653 14.222c19.911 19.342 19.911 54.613 0 73.956l-13.653 14.222h-763.449l-13.653-14.222z" />
<glyph unicode="&#xe939;" glyph-name="align-center" d="M14.222 894.578c-19.911-19.342-19.911-54.613 0-73.956l13.653-14.222h968.249l13.653 14.222c10.809 10.24 14.222 19.911 14.222 36.978s-3.413 26.738-14.222 36.978l-13.653 14.222h-968.249l-13.653-14.222zM219.022 689.778c-10.809-10.24-14.222-19.911-14.222-36.978s3.413-26.738 14.222-36.978l13.653-14.222h558.649l13.653 14.222c10.809 10.24 14.222 19.911 14.222 36.978s-3.413 26.738-14.222 36.978l-13.653 14.222h-558.649l-13.653-14.222zM14.222 484.978c-19.911-19.342-19.911-54.613 0-73.956l13.653-14.222h968.249l13.653 14.222c10.809 10.24 14.222 19.911 14.222 36.978s-3.413 26.738-14.222 36.978l-13.653 14.222h-968.249l-13.653-14.222zM321.422 280.178c-10.809-10.24-14.222-19.911-14.222-36.978s3.413-26.738 14.222-36.978l13.653-14.222h353.849l13.653 14.222c19.911 19.342 19.911 54.613 0 73.956l-13.653 14.222h-353.849l-13.653-14.222zM116.622 75.378c-19.911-19.342-19.911-54.613 0-73.956l13.653-14.222h763.449l13.653 14.222c19.911 19.342 19.911 54.613 0 73.956l-13.653 14.222h-763.449l-13.653-14.222z" />
<glyph unicode="&#xe93a;" glyph-name="align-right" d="M14.222 894.578c-19.911-19.342-19.911-54.613 0-73.956l13.653-14.222h968.249l13.653 14.222c10.809 10.24 14.222 19.911 14.222 36.978s-3.413 26.738-14.222 36.978l-13.653 14.222h-968.249l-13.653-14.222zM423.822 689.778c-19.911-19.342-19.911-54.613 0-73.956l13.653-14.222h558.649l13.653 14.222c10.809 10.24 14.222 19.911 14.222 36.978s-3.413 26.738-14.222 36.978l-13.653 14.222h-558.649l-13.653-14.222zM14.222 484.978c-19.911-19.342-19.911-54.613 0-73.956l13.653-14.222h968.249l13.653 14.222c10.809 10.24 14.222 19.911 14.222 36.978s-3.413 26.738-14.222 36.978l-13.653 14.222h-968.249l-13.653-14.222zM628.622 280.178c-19.911-19.342-19.911-54.613 0-73.956l13.653-14.222h353.849l13.653 14.222c10.809 10.24 14.222 19.911 14.222 36.978s-3.413 26.738-14.222 36.978l-13.653 14.222h-353.849l-13.653-14.222zM219.022 75.378c-10.809-10.24-14.222-19.911-14.222-36.978s3.413-26.738 14.222-36.978l13.653-14.222h763.449l13.653 14.222c19.911 19.342 19.911 54.613 0 73.956l-13.653 14.222h-763.449l-13.653-14.222z" />
<glyph unicode="&#xe93b;" glyph-name="alignment-vertical-center" horiz-adv-x="819" d="M372.622 945.778c-13.653-13.084-14.222-17.636-14.222-76.8v-62.578h-330.524l-13.653-14.222-14.222-13.653v-251.449l14.222-13.653 13.653-14.222h330.524v-102.4h-62.578c-59.164 0-63.716-0.569-76.8-14.222l-14.222-13.653v-251.449l14.222-13.653c13.084-13.653 17.636-14.222 76.8-14.222h62.578v-62.578c0-59.164 0.569-63.716 14.222-76.8 19.342-19.911 54.613-19.911 73.956 0 13.653 13.084 14.222 17.636 14.222 76.8v62.578h62.578c59.164 0 63.716 0.569 76.8 14.222l14.222 13.653v251.449l-14.222 13.653c-13.084 13.653-17.636 14.222-76.8 14.222h-62.578v102.4h330.524l13.653 14.222 14.222 13.653v251.449l-14.222 13.653-13.653 14.222h-330.524v62.578c0 59.164-0.569 63.716-14.222 76.8-10.24 10.809-19.911 14.222-36.978 14.222s-26.738-3.413-36.978-14.222z" />
<glyph unicode="&#xe93c;" glyph-name="alignment-horizontal" d="M167.822 843.378l-14.222-13.653v-330.524h-62.578c-59.164 0-63.716-0.569-76.8-14.222-19.911-19.342-19.911-54.613 0-73.956 13.084-13.653 17.636-14.222 76.8-14.222h62.578v-330.524l14.222-13.653 13.653-14.222h251.449l13.653 14.222 14.222 13.653v330.524h102.4v-62.578c0-59.164 0.569-63.716 14.222-76.8l13.653-14.222h251.449l13.653 14.222c13.653 13.084 14.222 17.636 14.222 76.8v62.578h62.578c59.164 0 63.716 0.569 76.8 14.222 19.911 19.342 19.911 54.613 0 73.956-13.084 13.653-17.636 14.222-76.8 14.222h-62.578v62.578c0 59.164-0.569 63.716-14.222 76.8l-13.653 14.222h-251.449l-13.653-14.222c-13.653-13.084-14.222-17.636-14.222-76.8v-62.578h-102.4v330.524l-14.222 13.653-13.653 14.222h-251.449l-13.653-14.222z" />
<glyph unicode="&#xe93d;" glyph-name="media" horiz-adv-x="1280" d="M0 448v-512h1280v1024h-1280v-512zM1152 496.64c0-376.32 15.36-363.52-207.36-171.52-79.36 66.56-153.6 122.88-166.4 122.88-10.24 0-46.080-23.040-76.8-53.76l-56.32-51.2-120.32 148.48c-66.56 81.92-128 151.040-138.24 156.16-7.68 2.56-69.12-102.4-135.68-230.4l-120.32-238.080v327.68l-2.56 325.12h1024v-335.36z" />
<glyph unicode="&#xe93e;" glyph-name="floppy-disk" d="M14.222 945.778l-14.222-13.653v-968.249l14.222-13.653 13.653-14.222h968.249l13.653 14.222 14.222 13.653v816.356l-179.769 179.769h-76.231v-358.4h-512v358.4h-113.778c-113.778 0-114.347 0-128-14.222zM851.627 429.227l15.929-15.36 3.413-426.667h-717.938l3.413 425.529 13.653 14.791c7.396 7.964 18.773 15.36 25.6 16.498 6.258 1.707 153.6 2.276 325.973 1.707l314.596-0.569 15.36-15.929zM563.2 780.8v-128h153.6v256h-153.6v-128z" />
<glyph unicode="&#xe93f;" glyph-name="double-chevron-left" d="M228.267 729.6c-168.533-168.533-228.267-243.2-228.267-281.6 0-78.933 437.333-512 516.267-512 51.2 0 81.067 34.133 81.067 89.6 0 12.8-87.467 113.067-196.267 221.867l-196.267 200.533 196.267 200.533c108.8 108.8 196.267 209.067 196.267 221.867 0 57.6-29.867 89.6-83.2 89.6-42.667 0-108.8-53.333-285.867-230.4zM667.733 721.067c-132.267-132.267-241.067-256-241.067-273.067 0-19.2 108.8-140.8 243.2-275.2 192-192 251.733-238.933 292.267-232.533 34.133 4.267 53.333 23.467 57.6 57.6 6.4 40.533-34.133 91.733-189.867 249.6l-200.533 200.533 200.533 200.533c155.733 157.867 196.267 209.067 189.867 249.6-4.267 36.267-21.333 53.333-59.733 57.6-42.667 4.267-100.267-40.533-292.267-234.667z" />
<glyph unicode="&#xe940;" glyph-name="double-chevron-right" d="M14.933 945.067c-44.8-42.667 0-117.333 181.333-298.667l198.4-198.4-200.533-200.533c-155.733-157.867-196.267-209.067-189.867-249.6 4.267-34.133 23.467-53.333 57.6-57.6 40.533-6.4 100.267 40.533 292.267 232.533 134.4 134.4 243.2 258.133 243.2 275.2s-108.8 140.8-241.067 273.067c-224 221.867-296.533 270.933-341.333 224zM439.467 925.867c-23.467-61.867-12.8-76.8 183.467-277.333l196.267-200.533-196.267-200.533c-108.8-108.8-196.267-209.067-196.267-221.867 0-57.6 29.867-89.6 83.2-89.6 78.933 0 514.133 433.067 514.133 512s-437.333 512-516.267 512c-29.867 0-61.867-14.933-68.267-34.133z" />
<glyph unicode="&#xe941;" glyph-name="desktop" d="M14.222 945.778l-14.222-13.653v-712.249l14.222-13.653 13.653-14.222h154.169c142.222 0 153.6-0.569 153.6-9.671 0-5.689-5.12-39.822-11.378-75.662s-11.378-65.991-11.378-66.56c0-1.138-18.204-1.707-39.822-1.707-35.271 0-42.098-1.707-54.044-14.222-19.911-19.342-19.911-54.613 0-73.956l13.653-14.222h558.649l13.653 14.222c19.911 19.342 19.911 54.613 0 73.956-11.947 12.516-18.773 14.222-54.044 14.222-21.618 0-39.822 0.569-39.822 1.707 0 0.569-5.12 30.72-11.378 66.56s-11.378 69.973-11.378 75.662c0 9.102 11.378 9.671 153.6 9.671h154.169l13.653 14.222 14.222 13.653v712.249l-14.222 13.653-13.653 14.222h-968.249l-13.653-14.222zM921.6 576v-281.6h-819.2v563.2h819.2v-281.6z" />
<glyph unicode="&#xe942;" glyph-name="data-timeline-area-chart" d="M14.222 843.378l-14.222-13.653v-763.449l14.222-13.653 13.653-14.222h968.249l13.653 14.222c19.911 19.342 19.911 54.613 0 73.956l-13.653 14.222h-893.724v688.924l-14.222 13.653c-10.24 10.809-19.911 14.222-36.978 14.222s-26.738-3.413-36.978-14.222zM790.187 649.387l-179.2-179.2-88.178 70.542c-139.947 112.071-139.947 112.071-164.409 112.071-23.893 0-25.031-0.569-146.773-102.4l-58.027-47.787v-310.613h819.2v318.578c0 175.218-0.569 318.578-1.707 318.578-0.569 0-81.92-80.782-180.907-179.769z" />
<glyph unicode="&#xe943;" glyph-name="table-list-detail-view" d="M14.222 894.578c-13.084-12.516-14.222-18.204-14.222-62.578s1.138-50.062 14.222-62.578l13.653-14.222h405.049l13.653 14.222c13.084 12.516 14.222 18.204 14.222 62.578s-1.138 50.062-14.222 62.578l-13.653 14.222h-405.049l-13.653-14.222zM577.422 894.578l-14.222-13.653v-865.849l14.222-13.653 13.653-14.222h405.049l13.653 14.222 14.222 13.653v865.849l-14.222 13.653-13.653 14.222h-405.049l-13.653-14.222zM14.222 638.578c-13.084-12.516-14.222-18.204-14.222-62.578s1.138-50.062 14.222-62.578l13.653-14.222h405.049l13.653 14.222c13.084 12.516 14.222 18.204 14.222 62.578s-1.138 50.062-14.222 62.578l-13.653 14.222h-405.049l-13.653-14.222zM14.222 382.578c-13.084-12.516-14.222-18.204-14.222-62.578s1.138-50.062 14.222-62.578l13.653-14.222h405.049l13.653 14.222c13.084 12.516 14.222 18.204 14.222 62.578s-1.138 50.062-14.222 62.578l-13.653 14.222h-405.049l-13.653-14.222zM14.222 126.578c-13.084-12.516-14.222-18.204-14.222-62.578s1.138-50.062 14.222-62.578l13.653-14.222h405.049l13.653 14.222c13.084 12.516 14.222 18.204 14.222 62.578s-1.138 50.062-14.222 62.578l-13.653 14.222h-405.049l-13.653-14.222z" />
<glyph unicode="&#xe944;" glyph-name="annotation" d="M481.792 273.408l391.68 391.68-144.896 144.896-391.68-391.68 144.896-144.896zM993.792 785.408c18.944 18.432 30.208 44.032 30.208 72.192 0 56.32-46.080 102.4-102.4 102.4-28.16 0-53.76-11.264-72.192-30.208l-84.48-84.48 144.896-144.896 83.968 84.992zM559.616 857.6l102.4 102.4h-610.816c-28.16 0-51.2-23.040-51.2-51.2v-921.6c0-28.16 23.040-51.2 51.2-51.2h921.6c28.16 0 51.2 23.040 51.2 51.2v610.816l-102.4-102.4v-457.216h-819.2v819.2h457.216zM204.8 140.8l225.792 81.408-143.872 142.848-81.92-224.256z" />
<glyph unicode="&#xe945;" glyph-name="manual" horiz-adv-x="1007" d="M1007.213 904.426c-1.511 21.655-18.633 40.792-41.799 44.317-202.45 32.734-357.561-6.043-461.807-114.822-104.247 108.779-259.357 147.557-461.304 114.822-23.67-4.029-40.792-22.662-42.303-44.317v-755.913c0-3.525 0-7.050 0.504-10.576 4.532-26.188 30.72-44.317 57.915-39.785 193.889 31.224 322.308-8.058 402.885-123.887 0.737-0.739 1.205-1.476 1.798-2.411 0.217-0.342 0.45-0.71 0.72-1.115 1.007-1.007 2.014-2.014 3.022-3.525l0.504-0.504c1.007-1.007 2.014-2.014 3.525-3.022 3.022-2.518 6.547-4.532 10.576-6.547 0.252 0 0.378-0.126 0.504-0.252s0.252-0.252 0.504-0.252c0.755-0.252 1.637-0.63 2.518-1.007 0.88-0.378 1.763-0.757 2.518-1.007 0.183 0 0.364-0.067 0.571-0.151l0.091-0.037c0.346-0.143 0.764-0.316 1.353-0.316 1.511-0.504 3.525-1.007 5.036-1.007 0.504 0 1.007 0 2.014-0.504h7.050c2.014 0 4.532 0 6.547 0.504 0.504 0 1.511 0 2.014 0.504 0.818 0.272 1.637 0.398 2.533 0.534 0.76 0.118 1.58 0.242 2.503 0.473 0.252 0 0.63 0.126 1.007 0.252s0.755 0.252 1.007 0.252c0.2 0.065 0.408 0.133 0.624 0.2l0.297 0.094c1.346 0.421 2.894 0.906 4.114 1.721 0.252 0 0.504 0.126 0.755 0.252s0.504 0.252 0.755 0.252c3.525 1.511 6.547 3.525 9.569 5.54 0.252 0 0.378 0.126 0.504 0.252s0.252 0.252 0.504 0.252c0.504 0.504 1.007 0.881 1.511 1.259s1.007 0.755 1.511 1.259c0.504 0.504 1.007 1.007 1.511 1.007l2.518 2.518c0.504 0.504 1.007 1.007 1.007 1.511 0.504 1.007 1.007 1.511 2.014 2.516 81.081 115.83 208.997 155.616 402.885 123.889 27.195-4.532 53.382 13.094 57.915 39.785-0.341 1.701-0.222 3.171-0.107 4.568 0.054 0.671 0.107 1.324 0.107 1.979v760.445zM453.246 122.326c-89.642 65.972-207.486 92.16-352.525 78.059v658.717c164.176 18.633 277.487-19.641 352.525-118.347v-618.429zM906.492 200.889c-145.039 14.101-262.883-12.087-352.525-78.059v618.429c75.037 98.706 188.349 136.477 352.525 118.347v-658.717z" />
<glyph unicode="&#xe946;" glyph-name="share" d="M550.912 704l102.4 102.4h-602.112c-28.16 0-51.2-23.040-51.2-51.2v-768c0-28.16 23.040-51.2 51.2-51.2h768c28.16 0 51.2 23.040 51.2 51.2v602.112l-102.4-102.4v-448.512h-665.6v665.6h448.512zM614.4 960c-28.16 0-51.2-23.040-51.2-51.2s23.040-51.2 51.2-51.2h235.008l-373.76-373.248c-9.216-9.216-14.848-22.016-14.848-36.352 0-28.16 23.040-51.2 51.2-51.2 14.336 0 27.136 5.632 36.352 14.848l373.248 373.76v-235.008c0-28.16 23.040-51.2 51.2-51.2s51.2 23.040 51.2 51.2v358.4c0 28.16-23.040 51.2-51.2 51.2h-358.4z" />
<glyph unicode="&#xe947;" glyph-name="credit-card" d="M51.2 806.4c-28.16 0-51.2-23.040-51.2-51.2v-102.4h1024v102.4c0 28.16-23.040 51.2-51.2 51.2h-921.6zM0 140.8c0-28.16 23.040-51.2 51.2-51.2h921.6c28.16 0 51.2 23.040 51.2 51.2v409.6h-1024v-409.6zM691.2 243.2c14.336 0 25.6-11.264 25.6-25.6s-11.264-25.6-25.6-25.6h-358.4c-14.336 0-25.6 11.264-25.6 25.6s11.264 25.6 25.6 25.6h358.4zM230.4 243.2c14.336 0 25.6-11.264 25.6-25.6s-11.264-25.6-25.6-25.6h-102.4c-14.336 0-25.6 11.264-25.6 25.6s11.264 25.6 25.6 25.6h102.4z" />
<glyph unicode="&#xe948;" glyph-name="geolocation" d="M0 533.504l469.504-128 128-469.504 426.496 1024-1024-426.496z" />
<glyph unicode="&#xe949;" glyph-name="history" d="M512 960c-168.448 0-316.416-81.92-409.6-207.36v104.96c0 28.16-23.040 51.2-51.2 51.2s-51.2-23.040-51.2-51.2v-204.8c0-28.16 23.040-51.2 51.2-51.2h204.8c28.16 0 51.2 23.040 51.2 51.2s-23.040 51.2-51.2 51.2h-63.488c75.264 93.696 189.952 153.6 319.488 153.6 226.304 0 409.6-183.296 409.6-409.6s-183.296-409.6-409.6-409.6-409.6 183.296-409.6 409.6c0 28.16-23.040 51.2-51.2 51.2s-51.2-23.040-51.2-51.2c0-282.624 229.376-512 512-512s512 229.376 512 512-229.376 512-512 512zM512 806.4c-28.16 0-51.2-23.040-51.2-51.2v-307.2c0-14.336 5.632-27.136 14.848-36.352l153.6-153.6c9.216-9.216 22.016-14.848 36.352-14.848 28.16 0 51.2 23.040 51.2 51.2 0 14.336-5.632 27.136-14.848 36.352l-138.752 138.24v286.208c0 28.16-23.040 51.2-51.2 51.2z" />
<glyph unicode="&#xe94a;" glyph-name="wrench" d="M982.528 726.72l-178.957-178.47-173.101 34.621-34.621 172.128 178.957 177.984c-98.010 25.844-206.259 1.463-282.816-74.605-90.694-90.208-108.736-224.307-55.588-333.043l-390.586-391.072c-18.042-17.555-28.769-41.939-28.769-68.755 0-53.638 43.398-97.523 97.523-97.523 26.819 0 51.2 10.726 68.755 28.768l391.558 392.045c108.736-51.2 242.349-32.671 332.557 56.564 76.557 76.070 100.934 183.834 75.091 281.357z" />
<glyph unicode="&#xe94b;" glyph-name="settings" d="M854.528 550.4c-7.168 23.552-16.896 45.568-28.672 66.56l87.040 87.040c19.968 19.968 19.968 52.224 0 72.192l-72.192 72.192c-19.968 19.968-52.224 19.968-72.192 0l-87.040-87.040c-20.992 11.264-43.008 20.992-66.56 28.16v119.296c0 28.16-23.040 51.2-51.2 51.2h-102.912c-28.16 0-51.2-23.040-51.2-51.2v-119.296c-24.576-7.168-48.128-17.408-70.144-29.696l-83.456 83.456c-18.944 18.944-50.176 18.944-69.632 0l-69.632-69.632c-18.944-19.456-18.944-50.688 0-69.632l82.944-82.944c-12.288-22.528-22.528-45.568-30.208-70.656h-118.272c-28.16 0-51.2-23.040-51.2-51.2v-102.4c0-28.16 23.040-51.2 51.2-51.2h118.272c7.168-23.552 16.896-45.568 28.672-66.56l-87.040-87.040c-19.968-19.968-19.968-52.224 0-72.192l72.192-72.192c19.968-19.968 52.224-19.968 72.192 0l87.040 87.040c20.992-11.264 43.008-20.992 66.56-28.16v-119.296c0-28.16 23.040-51.2 51.2-51.2h102.4c28.16 0 51.2 23.040 51.2 51.2v119.296c24.576 7.168 48.128 17.92 70.144 30.208l83.968-83.968c18.944-18.944 50.176-18.944 69.632 0l69.632 69.632c18.944 18.944 18.944 50.176 0 69.632l-82.944 82.944c12.288 22.016 23.040 45.568 30.72 70.656h117.76c28.16 0 51.2 23.040 51.2 51.2v102.4c0 28.16-23.040 51.2-51.2 51.2h-118.272zM512 243.2c-113.152 0-204.8 91.648-204.8 204.8s91.648 204.8 204.8 204.8c113.152 0 204.8-91.648 204.8-204.8s-91.648-204.8-204.8-204.8z" />
<glyph unicode="&#xe94c;" glyph-name="saved" d="M377.715 381.952c-9.216 9.216-22.016 14.848-36.352 14.848-28.16 0-51.2-23.040-51.2-51.2 0-14.336 5.632-27.136 14.848-36.352l153.6-153.6c9.216-9.216 22.016-14.848 36.352-14.848 16.384 0 30.208 8.192 39.424 19.456l0.512-0.512 204.801 256-0.512 0.512c7.168 9.216 11.776 19.456 11.776 31.744 0 28.16-23.040 51.2-51.2 51.2-16.384 0-30.208-8.192-39.424-19.456l-0.512 0.512-168.961-211.456-113.152 113.152zM187.763 960c-28.16 0-51.2-23.040-51.2-51.2v-921.6c0-28.16 23.040-51.2 51.2-51.2h665.601c28.16 0 51.2 23.040 51.2 51.2v665.6l-307.201 307.2h-409.6zM802.163 38.4h-563.201v819.2h307.2v-256h256.001v-563.2z" />
<glyph unicode="&#xe94d;" glyph-name="minus" d="M819.226 499.199h-614.401c-28.16 0-51.2-23.040-51.2-51.2s23.040-51.2 51.2-51.2h614.401c28.16 0 51.2 23.040 51.2 51.2s-23.040 51.2-51.2 51.2z" />
<glyph unicode="&#x1f322;" glyph-name="add" d="M371.2 943.787c-171.52-48.64-314.027-194.56-357.547-364.373-17.92-68.267-17.92-194.56 0-262.827 44.373-173.227 193.707-322.56 366.933-366.933 68.267-17.92 194.56-17.92 262.827 0 173.227 44.373 322.56 193.707 366.933 366.933 17.92 68.267 17.92 194.56 0 262.827-44.373 173.227-193.707 322.56-366.933 366.933-70.827 17.92-204.8 17.067-272.213-2.56zM635.733 832c67.413-23.040 111.787-50.347 160.427-99.84 80.213-80.213 116.907-168.96 116.907-284.16s-36.693-203.947-116.907-284.16c-80.213-80.213-168.96-116.907-284.16-116.907s-203.947 36.693-284.16 116.907c-80.213 80.213-116.907 168.96-116.907 284.16 0 175.787 99.84 318.293 266.24 380.587 72.533 26.453 186.88 28.16 258.56 3.413zM474.453 741.547c-11.093-10.24-13.653-34.987-13.653-128v-114.347h-114.347c-127.147 0-141.653-5.12-141.653-51.2s14.507-51.2 141.653-51.2h114.347v-114.347c0-127.147 5.12-141.653 51.2-141.653s51.2 14.507 51.2 141.653v114.347h114.347c127.147 0 141.653 5.12 141.653 51.2s-14.507 51.2-141.653 51.2h-114.347v114.347c0 127.147-5.12 141.653-51.2 141.653-13.653 0-30.72-5.973-37.547-13.653z" />
</font>
</defs>
</svg>
